<svg width="210" height="49" viewBox="0 0 210 49" fill="none" xmlns="http://www.w3.org/2000/svg">
<path fill-rule="evenodd" clip-rule="evenodd" d="M40.9396 38.3136C41.2747 41.2988 40.558 43.939 38.4517 44.5222C37.3762 44.82 35.8038 43.581 35.798 42.4385C35.7867 40.207 39.002 38.8303 40.9396 38.3136ZM78.3775 12.2824C78.2379 12.2818 78.1005 12.284 77.9658 12.2885C72.3508 13.0043 69.5875 16.15 67.8897 20.623C66.4828 24.3296 65.0122 28.043 66.8945 33.6781C67.7589 36.2655 73.575 37.9234 77.3851 36.3997C80.4147 35.1883 82.7266 33.0251 84.0411 31.2769C84.1845 32.0735 84.3971 32.9097 84.6923 33.7934C85.5566 36.3808 91.3686 38.102 94.934 36.0473C98.2872 34.1151 98.0994 32.4525 98.7072 30.2638C97.0513 33.3782 91.1781 33.7668 90.5803 30.7741C90.2552 29.1459 90.0544 27.6744 90.8289 26.692C94.6121 26.7665 96.8549 24.8943 98.9975 22.95C100.318 21.2535 102.099 20.0916 101.237 15.2957C100.801 12.8692 97.9176 12.3324 95.7634 12.4039C90.1484 13.1198 87.3854 16.2658 85.6875 20.7388C84.7302 23.261 83.7444 25.7869 83.8046 28.9187C82.2036 30.767 80.5848 32.5901 78.1733 33.2954C75.2304 33.8462 73.1325 33.3334 72.6168 30.8291C72.4161 29.1799 72.2571 27.559 73.0316 26.5763C76.8149 26.6509 79.0576 24.7786 81.2002 22.8343C82.5207 21.1379 84.3011 19.9762 83.4391 15.1803C83.0302 12.9054 80.4709 12.2914 78.3775 12.2824ZM79.0439 14.7974C81.3676 14.8257 80.5 18.2163 79.4999 20.3255C77.1094 23.7896 75.066 24.6734 73.1143 24.8757C74.1674 19.9751 75.935 14.7595 79.0439 14.7974ZM96.8415 14.9126C99.1652 14.9409 98.2978 18.3314 97.2977 20.4407C94.9073 23.9047 92.8638 24.7885 90.9121 24.9909C91.9652 20.0903 93.7326 14.8746 96.8415 14.9126ZM66.8111 0.628536C64.1497 0.597977 61.3062 2.11788 60.2921 4.04206C59.5809 0.825576 55.7033 0.735206 55.7183 0.674341C55.7183 0.674341 50.2156 0.247601 47.8605 5.84607C44.9899 12.6703 45.6239 19.7721 44.2247 19.6777L40.1423 20.4171C40.2149 20.3499 40.2871 20.303 40.351 20.2911C40.3142 17.4876 39.8358 15.1906 38.7921 13.9428C37.1014 11.9219 34.9031 11.6116 30.9878 12.6715C29.4235 13.095 28.1454 14.2831 27.0146 15.3095C25.3979 16.7771 23.8204 19.9993 23.3491 21.3615C21.664 27.7722 22.3521 27.3151 21.8831 29.1794C21.8799 29.1961 21.8776 29.2174 21.8746 29.2347C21.0506 30.1766 17.6253 33.649 12.4519 32.912C6.48099 32.0616 7.97356 22.7064 7.97356 22.7064C7.81153 21.9408 9.87878 3.72874 17.4279 3.14518C20.2851 2.92433 21.069 5.39593 20.5776 7.19778C20.0854 9.00314 18.5402 10.5401 18.5402 10.5401C18.5402 10.9919 20.7573 12.0138 22.5694 11.6502C24.0659 11.3499 26.3839 3.8255 21.2424 1.61425C19.6357 0.923238 18.0613 0.680835 16.6561 0.673996C13.5645 0.658936 11.2908 1.78445 11.2908 1.78445C11.2908 1.78445 5.25135 3.16754 1.46656 15.9693C0.389678 19.6119 -0.0251375 23.123 0.00087056 26.0511C0.0401613 30.4752 1.31164 33.8005 4.61973 36.0752C9.52935 39.4513 19.706 35.8197 22.1519 31.3508C22.6163 35.7937 28.4586 38.9199 33.7923 35.2494C35.6582 34.0829 37.1568 32.6575 38.1264 30.8633C39.5504 28.2278 39.9799 24.5084 40.1969 22.1783C40.1616 22.1674 40.1288 22.155 40.0975 22.1416L44.518 21.2414L41.3513 36.5165C41.4355 36.0668 31.4983 38.0404 33.2591 44.7553C33.8259 46.917 36.1927 48.706 38.3608 48.9651C40.749 49.2506 43.9568 47.7608 44.8698 45.7778C47.128 50.398 55.7171 49.6397 57.5946 43.673L63.9276 14.6262L68.0911 14.566L68.6775 13.0024L64.1623 12.9423C64.6293 8.82914 65.4832 4.99867 68.2669 5.004C70.1654 5.03123 70.282 6.76918 70.1434 7.71021H72.1371C72.084 6.17708 72.4676 4.12038 70.5539 2.11746C69.549 1.08572 68.205 0.644536 66.8111 0.628536ZM56.6998 4.9654C57.367 4.9654 58.1096 5.29359 58.8848 6.20692C58.8848 6.20692 58.3159 9.12214 57.5762 12.8821H52.6046L53.783 7.10893C53.783 7.10893 54.9949 4.9654 56.6998 4.9654ZM52.2368 14.6864H57.2216C56.0823 20.4586 54.5813 27.9868 53.2937 34.1471L48.0511 35.1953L52.2368 14.6864ZM53.088 35.1235C52.3926 38.4288 51.7821 41.2186 51.3789 42.8312C51.0669 44.0792 49.1829 45.2272 47.8101 44.9535C47.1239 44.8166 46.1696 44.4147 46.3945 43.3123L47.8411 36.2243L53.088 35.1235ZM35.1624 15.2185C36.7171 15.2051 36.6402 17.8936 36.4845 17.8137C36.4845 17.8137 33.0903 20.4709 36.3672 22.9255C36.4649 25.4515 35.6488 29.6452 32.9076 32.1266C31.9796 32.9667 29.5541 33.2461 28.9788 31.2847C28.901 31.0195 28.2573 28.3854 29.2512 24.2594C29.7037 22.3809 30.3613 18.97 32.204 17.0923C33.559 15.7115 34.506 15.2241 35.1624 15.2185ZM209.06 5.3654L202.316 6.02693L201.026 13.003L199.091 13.0631L198.857 14.8071H200.616L197.692 30.2642C197.497 31.1483 197.251 31.9816 197.508 33.3297C197.852 35.1402 199.697 37.0153 201.495 37.0582C203.73 37.1118 205.825 34.5283 206.656 32.668C205.592 33.2059 203.472 33.031 203.724 31.7058L206.949 14.6866L209.588 14.6265L209.998 13.0629H207.594L209.06 5.3654ZM184.607 18.1146L181.851 31.8261C181.514 33.5051 184.626 33.7785 186.601 31.4652C188.428 29.3251 188.909 28.0043 189.826 23.1059C190.341 19.9355 190.435 17.2088 188.36 16.1901C187.099 15.5706 185.45 16.5699 184.607 18.1146ZM179.271 10.8377L175.32 30.3232C174.497 31.5614 173.521 32.6662 172.117 32.788C169.932 32.9361 168.892 31.8525 169.83 28.6385L172.997 12.8824L166.722 12.8222L163.204 32.1867C162.795 34.4337 164.647 36.6763 168.188 36.7572C171.076 36.5926 173.508 35.0724 174.404 34.051L174.576 33.9945L171.589 48.7247L178.743 46.9205L180.913 35.5543C182.525 37.1412 184.463 37.3882 186.542 37.0578C190.885 35.7517 193.873 32.9076 195.397 28.3979C197.043 19.2542 197.381 14.9318 193.345 12.8824C190.532 11.4542 187.291 12.6768 185.428 14.2656L185.839 10.9581L179.271 10.8377ZM174.88 6.39479C174.88 8.45404 173.252 10.1233 171.244 10.1233C169.236 10.1233 167.608 8.45397 167.608 6.39479C167.608 4.33558 169.236 2.6663 171.244 2.6663C173.252 2.66629 174.88 4.33561 174.88 6.39479ZM139.354 12.0321C138.743 12.0319 138.123 12.0813 137.637 12.2209C135.587 12.8096 133.841 13.6491 132.213 15.679C130.671 17.4422 129.447 19.4502 128.841 21.9334C127.936 24.6426 127.548 26.7315 127.404 27.9171C127.32 30.2422 127.453 31.7868 127.991 33.1491C129.048 35.8263 130.577 36.2001 132.36 36.7574C136.432 37.1287 139.72 36.0467 140.639 35.1309C141.96 34.5615 143.091 33.5239 145.114 31.4353L145.289 31.3484L144.205 36.6371L150.773 36.5169L154.584 18.2348C154.846 16.9787 156.821 16.4555 158.044 16.7314C158.629 16.8633 159.451 17.3382 159.542 18.7541C159.603 19.716 160.602 19.444 161.093 19.5579C162.193 19.813 163.685 18.7671 163.908 17.6334C164.279 15.7477 164.121 13.2706 160.8 12.8225C159.046 12.9906 157.081 13.7182 155.171 15.649L155.816 12.9428L149.072 12.8827L145.924 28.2466L145.29 28.8492C144.186 30.2633 142.599 31.5843 140.247 32.7581C138.635 33.4564 136.933 33.5411 135.086 32.6378C133.914 31.96 133.929 29.347 134.471 25.8723C134.967 23.6268 135.464 21.382 136.494 19.5278C137.071 18.0402 137.862 16.8272 138.751 15.7391C140.707 13.96 141.974 15.2912 141.675 17.2705C141.456 18.7154 140.55 20.3003 143.448 19.7058C147.087 16.7722 143.409 12.7752 141.678 12.2635C141.368 12.1717 140.373 12.0325 139.354 12.0321ZM121.502 10.375C120.632 11.4627 124.399 10.5504 125.359 9.86468C127.139 8.59289 127.37 6.24066 126.354 4.12384C125.065 1.43994 122.271 0.57448 119.139 0.551891C114.619 0.424389 111.596 2.34244 109.726 5.27213C108.425 6.76642 108.283 8.81835 108.572 10.4937C109.15 13.8432 111.909 16.4106 114.148 18.8929C116.167 21.1312 118.713 24.5823 118.456 27.4615C118.196 29.5616 117.513 32.034 115.49 33.593C113.994 34.7458 110.488 35.392 108.317 31.9345C107.329 30.3623 107.943 28.4536 108.645 26.9991C109.347 25.5445 111.644 24.4101 113.085 24.4928C113.839 24.5361 113.024 23.1712 111.717 22.4517C110.611 21.843 108.878 21.7337 107.197 22.4942C104.794 23.5812 102.658 25.354 102.761 29.8935C102.847 33.7397 104.913 35.1728 107.861 36.825C112.777 38.4963 116.078 37.5373 119.139 36.1871C122.435 33.8971 126.271 31.0963 125.876 26.0238C126.003 19.3326 122.626 18.0836 120.424 15.7331C116.084 12.6945 112.661 8.42788 115.988 4.25166C117.469 2.39256 122.173 2.52781 122.663 4.59185C123.126 6.53946 122.953 8.56125 121.502 10.375Z" fill="#CE9760"/>
</svg>
