<svg width="59" height="59" viewBox="0 0 59 59" fill="none" xmlns="http://www.w3.org/2000/svg">
<path d="M34.4167 4.91667H15.2538C13.789 4.91667 12.5279 5.95057 12.2406 7.38692L10.2763 17.2083H4.91667V22.125H10.1007L13.4742 51.3627C13.6532 52.9132 14.9661 54.0833 16.5269 54.0833H42.4731C44.0339 54.0833 45.3469 52.9132 45.5256 51.3627L48.8992 22.125H54.0833V17.2083H48.7237L46.7595 7.38692C46.4721 5.95057 45.211 4.91667 43.746 4.91667H39.3333V0H34.4167V4.91667ZM43.7097 17.2083H15.2903L16.7653 9.83333H42.2347L43.7097 17.2083ZM15.05 22.125H43.9501L40.83 49.1667H18.1702L15.05 22.125Z" fill="white"/>
</svg>
