<svg width="83" height="83" viewBox="0 0 83 83" fill="none" xmlns="http://www.w3.org/2000/svg">
<path d="M48.4167 6.91667H21.4588C19.3981 6.91667 17.6239 8.37114 17.2198 10.3918L14.4565 24.2083H6.91667V31.125H14.2094L18.9553 72.256C19.207 74.4372 21.054 76.0833 23.2497 76.0833H59.7503C61.946 76.0833 63.7931 74.4372 64.0445 72.256L68.7904 31.125H76.0833V24.2083H68.5435L65.7803 10.3918C65.376 8.37114 63.6019 6.91667 61.541 6.91667H55.3333V0H48.4167V6.91667ZM61.4899 24.2083H21.5101L23.5851 13.8333H59.4149L61.4899 24.2083ZM21.172 31.125H61.8281L57.4388 69.1667H25.5614L21.172 31.125Z" fill="#543A20"/>
</svg>
